<?xml version="1.0" encoding="UTF-8" standalone="no"?>
<!-- Created with Inkscape (http://www.inkscape.org/) -->

<svg
   width="488.41049"
   height="488.41049"
   viewBox="0 0 129.22527 129.22528"
   version="1.1"
   id="svg1"
   xml:space="preserve"
   sodipodi:docname="square Logo papiagency Vector.svg"
   inkscape:version="1.4-beta (62f545b, 2024-04-22)"
   xmlns:inkscape="http://www.inkscape.org/namespaces/inkscape"
   xmlns:sodipodi="http://sodipodi.sourceforge.net/DTD/sodipodi-0.dtd"
   xmlns="http://www.w3.org/2000/svg"
   xmlns:svg="http://www.w3.org/2000/svg"><sodipodi:namedview
     id="namedview1"
     pagecolor="#ffffff"
     bordercolor="#000000"
     borderopacity="0.25"
     inkscape:showpageshadow="2"
     inkscape:pageopacity="0.0"
     inkscape:pagecheckerboard="0"
     inkscape:deskcolor="#d1d1d1"
     inkscape:zoom="1.0218058"
     inkscape:cx="358.67873"
     inkscape:cy="310.72441"
     inkscape:window-width="1920"
     inkscape:window-height="1052"
     inkscape:window-x="0"
     inkscape:window-y="0"
     inkscape:window-maximized="1"
     inkscape:current-layer="g2" /><defs
     id="defs1"><rect
       x="-1984.2417"
       y="2822.2654"
       width="4025.3018"
       height="902.237"
       id="rect26" /><rect
       x="-1984.2417"
       y="2822.2654"
       width="4025.3018"
       height="902.237"
       id="rect26-5" /><rect
       x="-1984.2417"
       y="2822.2654"
       width="4025.3018"
       height="902.237"
       id="rect26-9" /></defs><g
     id="g2"
     transform="matrix(1.3333518,0,0,1.3333518,-10.742558,-6.1919914)"><g
       id="g1"
       transform="matrix(0.2071266,0,0,0.22391433,46.107788,35.397925)"><path
         style="fill:#cf01b0;fill-opacity:1;stroke-width:0.990374"
         d="m -107.31091,216.46714 c -1.04025,-5.4348 -5.02143,-19.16789 -16.54369,-57.06762 -11.12471,-36.5921 -22.13684,-78.951091 -26.61645,-102.382282 -1.66619,-8.715271 -3.27884,-16.960115 -3.58365,-18.321882 -0.46941,-2.097065 0.32694,-1.631218 5.20432,3.044493 9.32819,8.942488 18.28145,15.772576 20.67558,15.772576 0.37776,0 0.38617,-1.880413 0.0187,-4.17869 -0.95807,-5.991481 -9.58763,-44.7648986 -10.07264,-45.2573682 -1.4377,-1.4598216 -1.29144,2.2207542 0.50972,12.8256072 1.13025,6.654663 2.055,12.505351 2.055,13.001517 0,0.500099 -4.28535,0.775793 -9.61611,0.618648 l -9.6161,-0.283447 -1.27899,-7.922983 c -5.15939,-31.9607648 -7.89749,-79.573352 -5.25911,-91.449993 2.29614,-10.336065 6.38763,-16.542003 13.39065,-20.31082 3.47684,-1.871129 5.54296,-2.131954 16.88805,-2.131954 12.73506,0 13.02464,0.04979 19.54837,3.361062 13.024645,6.610956 23.740293,18.739176 31.156326,35.26344 8.354938,18.616332 10.664132,31.352549 9.868889,54.4312076 -0.619561,17.9800764 -1.859785,23.8411404 -7.592988,35.8831154 -6.939164,14.574985 -15.916561,21.718051 -28.617427,22.77008 -5.60922,0.464621 -7.53275,0.160764 -12.94473,-2.044845 -3.49609,-1.424799 -6.58071,-2.366374 -6.8547,-2.09239 -0.27398,0.274003 0.46519,5.955518 1.64262,12.625601 3.68232,20.860118 5.09951,30.944907 9.1501,65.112357 2.16326,18.2476 5.28559,43.59499 6.9385,56.32753 1.65291,12.73255 2.84842,23.87423 2.65668,24.75931 -0.19174,0.88506 -0.68984,-0.17345 -1.10688,-2.35227 z M -138.63519,5.0227151 c 0,-0.5446991 -0.19653,-0.990374 -0.43673,-0.990374 -0.24021,0 -0.71217,0.4456749 -1.04883,0.990374 -0.33663,0.5447086 -0.14011,0.990374 0.43675,0.990374 0.57684,0 1.04881,-0.4456654 1.04881,-0.990374 z"
         id="path6" /><path
         style="fill:#cf01b0;fill-opacity:1;stroke-width:0.990374"
         d="m 14.888409,151.8928 c -2.450234,-1.26443 -4.316319,-3.48095 -6.437422,-7.64632 -2.68815,-5.27872 -3.0211758,-6.96006 -3.3278825,-16.80072 -0.2021909,-6.48749 0.1277945,-12.49919 0.8114237,-14.7809 0.6337467,-2.11525 0.9632569,-4.03491 0.7322767,-4.2659 -0.2309802,-0.23098 -3.2701137,1.79575 -6.75362995,4.50385 L -6.420491,117.82663 -6.722637,104.25826 C -7.2025552,82.707294 -3.6308655,74.760234 9.4228902,68.333863 15.077298,65.550223 16.513442,65.250415 22.503725,65.603194 38.346061,66.536189 49.692786,78.287068 55.622641,99.9016 c 1.67539,6.10678 1.990458,9.49016 1.632729,17.53332 -0.396211,8.90947 -0.78786,10.61301 -3.693403,16.06439 -1.787698,3.35391 -4.873294,7.74689 -6.857101,9.76215 -7.728954,7.85175 -24.506993,12.40338 -31.816457,8.63134 z"
         id="path7" /><path
         style="fill:#cf01b0;fill-opacity:1;stroke-width:0.990374"
         d="M 100.14624,126.94741 C 96.07639,122.59066 95.179453,118.35418 93.098921,93.661011 92.04331,81.132799 90.905227,69.202561 90.56992,67.149365 c -0.753465,-4.612973 0.417304,-13.804228 1.660474,-13.035903 3.329877,2.057928 18.589866,28.433713 23.250806,40.187243 3.42983,8.649105 4.18947,18.248945 1.91511,24.204205 -4.13892,10.83767 -11.60108,14.48977 -17.25007,8.4425 z"
         id="path8" /><path
         style="fill:#cf01b0;fill-opacity:1;stroke-width:0.990374"
         d="M 29.535367,246.42589 C 22.038819,233.4476 14.887744,216.86792 8.2839515,197.15488 l -2.82003,-8.41816 -0.2696512,6.93261 c -0.3563043,9.1592 -0.7339869,10.15164 -3.0616519,8.04514 -4.9670725,-4.49515 -14.8924764,-30.66437 -21.4570274,-56.57338 -1.518046,-5.99174 -3.085405,-11.26755 -3.482946,-11.72401 -0.397541,-0.45646 -2.402536,4.21109 -4.455609,10.37233 -4.861132,14.58876 -12.431354,29.59981 -17.700867,35.09938 -3.435316,3.58529 -4.843174,4.38163 -7.74637,4.38163 -2.746109,0 -4.127544,-0.6887 -6.112007,-3.04711 -2.400104,-2.85235 -2.554654,-3.65937 -2.418356,-12.62723 0.124032,-8.16089 0.237175,-8.77319 0.763745,-4.1331 1.008608,8.88781 4.673963,12.43569 11.49948,11.13091 4.702781,-0.89899 9.560149,-12.52275 10.911921,-26.11238 0.359078,-3.60982 0.272558,-6.78921 -0.192262,-7.06531 -0.464811,-0.27609 -5.660441,3.25682 -11.545819,7.85094 l -10.700684,8.35293 0.680247,-3.76355 c 1.15815,-6.40764 5.309571,-20.06452 7.262157,-23.89026 2.665926,-5.22339 5.729801,-7.7837 7.772613,-6.49512 2.961212,1.86789 5.415427,6.05552 6.580409,11.22821 l 1.15015,5.10679 14.778582,-11.4081 c 8.128205,-6.27446 14.869103,-11.31344 14.9798899,-11.19773 0.1107869,0.11571 0.7142239,4.66704 1.3410345,10.11409 2.5091427,21.80656 8.5147235,52.37869 10.0970948,51.40072 0.4593001,-0.28386 0.6073327,-2.16047 0.3289402,-4.17022 -4.64421325,-33.53414 -5.40157375,-42.16425 -3.53187861,-40.24837 1.26730331,1.29861 4.02129821,12.59146 10.01120221,41.05092 5.843676,27.76519 9.77414,41.47535 16.325199,56.94638 5.982683,14.12858 7.488567,18.32188 6.579944,18.32188 -0.407423,0 -2.349614,-2.78542 -4.316034,-6.18982 z"
         id="path9" /><path
         style="fill:#ff0000;fill-opacity:1;stroke-width:0.495186"
         d="m 49.406983,180.10517 c -2.443298,-0.87081 -3.205789,-1.54801 -4.417699,-3.92367 -0.766672,-1.50274 -0.959266,-2.64322 -0.805438,-4.76977 0.379108,-5.24079 3.645421,-7.72074 11.346821,-8.61505 l 4.309762,-0.50047 -0.267656,-1.75913 c -0.147177,-0.96751 -0.597356,-2.13927 -1.000312,-2.6039 -1.405455,-1.6201 -5.953418,-1.65739 -11.420837,-0.0936 -1.087916,0.31115 -1.137989,0.21793 -0.990336,-1.84286 l 0.155539,-2.17058 3.466223,-0.69216 c 6.594671,-1.31683 11.37428,0.15445 13.140409,4.04489 0.838313,1.84671 0.95195,3.30917 0.961547,12.36943 l 0.01093,10.27511 h -1.971361 c -1.669215,0 -2.017158,-0.18259 -2.270371,-1.19141 l -0.299011,-1.19141 -2.310087,1.39289 c -2.879699,1.73633 -5.234444,2.12838 -7.63812,1.27172 z m 7.80392,-4.88451 1.980672,-1.12013 0.144422,-4.1046 0.144327,-4.10462 -2.372702,0.32626 c -6.732822,0.92581 -8.562516,2.12531 -8.562516,5.61344 0,3.12467 1.37353,4.52886 4.419219,4.51792 1.426833,-0.005 2.999228,-0.42289 4.246578,-1.12827 z"
         id="path10" /><path
         style="fill:#ff6600;fill-opacity:1;stroke-width:0.495186"
         d="m 101.8394,179.59108 c -2.48748,-0.88665 -5.13943,-3.43124 -6.336517,-6.07983 -0.726196,-1.60686 -0.950525,-3.23044 -0.950525,-6.88157 0,-4.14547 0.171216,-5.12837 1.292007,-7.41919 2.275407,-4.65074 6.295275,-6.97527 11.240685,-6.50006 5.08831,0.48892 8.235,4.40682 8.69421,10.825 l 0.24419,3.41311 h -8.73221 -8.732311 l 0.01083,1.60935 c 0.01653,2.44889 1.697721,5.66713 3.550411,6.79672 2.39284,1.45887 6.8017,1.35528 10.22935,-0.24035 1.45686,-0.67821 2.73813,-1.23312 2.8473,-1.23312 0.10908,0 0.19839,0.98674 0.19839,2.19276 v 2.19276 l -2.74212,1.02595 c -3.19619,1.19585 -7.92962,1.3265 -10.81369,0.29847 z m 9.82165,-17.7182 c -0.90749,-4.21376 -3.38556,-6.11695 -7.17569,-5.51088 -2.4642,0.39404 -4.34482,1.81743 -5.243657,3.96877 -1.328873,3.18035 -1.384266,3.15147 6.041587,3.15147 h 6.72437 z"
         id="path11" /><path
         style="fill:#ffff00;fill-opacity:1;stroke-width:0.495186"
         d="m 120.8423,166.70095 v -13.12243 h 2.22828 c 1.89829,0 2.22837,0.14672 2.22837,0.99037 0,0.5447 0.0887,0.99036 0.19735,0.99036 0.1085,0 1.50123,-0.68885 3.0949,-1.53078 4.80394,-2.53791 8.64366,-1.4761 10.94434,3.02646 1.04982,2.05447 1.11414,2.77542 1.11414,12.47447 v 10.29398 h -1.98067 -1.98077 l -0.0118,-8.78956 c -0.0126,-9.38605 -0.40932,-12.34807 -1.78884,-13.35676 -1.46531,-1.0715 -5.05952,-0.76882 -7.44058,0.62659 l -2.14809,1.25884 v 10.13045 10.13044 h -2.22837 -2.22828 z"
         id="path12" /><path
         style="fill:#0000ff;fill-opacity:1;stroke-width:0.495186"
         d="m 72.43783,188.90395 c -0.351553,-0.14186 -0.618924,-1.11254 -0.618924,-2.24699 0,-1.85022 0.082,-1.97012 1.11414,-1.6289 0.612748,0.20259 3.059086,0.4734 5.436254,0.60181 4.280593,0.23123 4.336461,0.2191 5.818402,-1.26287 1.336759,-1.33667 1.496383,-1.81741 1.496383,-4.50554 0,-1.65505 -0.120288,-3.0092 -0.267371,-3.0092 -0.146987,0 -1.205448,0.4835 -2.352083,1.07445 -4.838518,2.49366 -9.768155,0.7087 -12.540393,-4.54075 -1.310154,-2.48093 -1.309869,-10.89017 9.5e-4,-13.37002 1.632729,-3.08982 3.289972,-4.93946 5.382001,-6.00675 1.768315,-0.90211 2.495556,-0.99315 5.294588,-0.66278 1.784657,0.21064 4.512618,0.39129 6.062114,0.40144 l 2.817465,0.0185 -0.245993,13.15234 c -0.1353,7.23377 -0.472887,14.15508 -0.750139,15.38067 -0.633747,2.80148 -2.545628,5.34717 -4.68811,6.24236 -1.594913,0.6664 -10.534066,0.93721 -11.958809,0.36228 z m 11.141684,-14.51429 2.104571,-0.95528 v -7.67152 c 0,-9.00962 -0.111072,-9.21322 -5.024081,-9.21322 -2.310182,0 -3.098042,0.23145 -4.337506,1.27446 -2.066851,1.7391 -2.656416,4.1016 -2.450044,9.8168 0.171501,4.74649 0.205041,4.86419 1.791878,6.28146 1.963665,1.75375 4.722315,1.91662 7.915182,0.4673 z"
         id="path13" /><path
         style="fill:#ff0000;fill-opacity:1;stroke-width:0.495186"
         d="m 48.692284,179.5435 c -2.505152,-1.09661 -4.108807,-3.88366 -4.107857,-7.13907 0.0019,-5.62008 2.513989,-7.83712 10.424135,-9.19848 2.572993,-0.44282 4.760701,-0.88567 4.861512,-0.98412 0.357349,-0.3491 -0.45398,-3.53381 -1.139414,-4.472 -0.584149,-0.79969 -1.318421,-0.9526 -4.574093,-0.9526 -2.133075,0 -4.713954,0.17722 -5.735264,0.39382 l -1.856964,0.39384 v -1.70262 c 0,-2.13978 0.49208,-2.34998 6.189909,-2.64444 3.965715,-0.20495 4.698942,-0.10343 6.65624,0.92176 3.542521,1.85542 3.841246,2.92335 4.235081,15.14108 0.32267,10.01132 0.29483,10.52237 -0.571892,10.51595 -1.679856,-0.0125 -3.139279,-0.5981 -3.139279,-1.25974 0,-1.2211 -0.793751,-1.15546 -3.689412,0.30516 -3.136904,1.58228 -5.091922,1.75867 -7.552702,0.68146 z m 8.747889,-4.16748 1.922998,-0.98105 0.174732,-4.09461 c 0.09606,-2.25203 0.120193,-4.22909 0.05359,-4.39347 -0.183473,-0.45295 -5.566044,0.45132 -7.957083,1.33679 -2.505913,0.92801 -3.089302,1.84795 -3.089302,4.87175 0,3.12628 1.177135,4.24164 4.476418,4.24164 1.51054,0 3.254721,-0.38725 4.418649,-0.98105 z"
         id="path14" /><path
         style="fill:#00ff00;fill-opacity:1;stroke-width:0.495186"
         d="m 151.72419,179.75961 c -2.304,-0.66449 -5.26399,-3.82177 -6.22383,-6.63886 -0.95793,-2.81117 -1.08991,-9.67784 -0.23392,-12.16434 1.75976,-5.11188 5.64813,-8.10028 10.5562,-8.11297 1.71872,-0.004 3.97132,0.37592 5.32927,0.89983 l 2.35208,0.90753 v 2.40852 2.40853 l -2.77375,-1.45911 c -3.37853,-1.77721 -5.8566,-1.87984 -8.17087,-0.33841 -2.5939,1.72769 -3.64409,4.3401 -3.63022,9.03062 0.0131,4.47819 1.13941,7.36489 3.46898,8.89129 1.88233,1.23334 6.85891,0.89297 8.97507,-0.61386 0.84753,-0.60348 1.67368,-1.09724 1.83587,-1.09724 0.16219,0 0.29492,1.01068 0.29492,2.24594 0,2.19623 -0.0502,2.26746 -2.26932,3.21871 -2.44245,1.04691 -6.67639,1.23114 -9.51048,0.41382 z"
         id="path15" /><path
         style="fill:#00ffff;fill-opacity:1;stroke-width:0.495186"
         d="m 169.10548,189.10811 c 0.14318,-0.34044 1.17257,-2.83539 2.28757,-5.54436 l 2.02723,-4.92536 -4.46293,-12.27545 c -2.4546,-6.75149 -4.46293,-12.38996 -4.46293,-12.52994 0,-0.13996 0.95328,-0.25448 2.11845,-0.25448 h 2.11844 l 2.67713,7.79918 c 3.60456,10.50084 3.9659,11.34676 4.48696,10.50364 0.2325,-0.37621 1.7972,-4.64824 3.47696,-9.49341 l 3.05424,-8.80941 h 1.92794 c 1.06046,0 1.93184,0.16712 1.93659,0.37138 0.005,0.20427 -2.94574,8.3377 -6.55657,18.07429 l -6.56522,17.7029 h -2.16215 c -1.53838,0 -2.08699,-0.17855 -1.90171,-0.61898 z"
         id="path16" /><path
         style="fill:#ff0000;fill-opacity:1;stroke-width:0.495186"
         d="M 25.279858,26.489985 C 14.957864,25.57338 14.644887,23.716075 24.082866,19.386958 27.382814,17.873311 42.291253,11.196605 47.315619,8.9822159 48.132649,8.6221205 52.56992,6.6503323 57.176223,4.6004612 65.088459,1.0793857 66.380276,0.69770303 66.380276,1.880985 c 0,0.272359 -0.212167,0.364048 -0.471557,0.2037681 C 65.565432,1.8725572 41.924212,19.024468 33.340603,25.713213 c -1.140364,0.888651 -3.855023,1.150245 -8.060745,0.776772 z"
         id="path17" /><path
         style="fill:#ff0000;fill-opacity:1;stroke-width:0.495186"
         d="m 82.82738,27.200826 c -1.051431,-1.566028 -3.108019,-4.852827 -4.570197,-7.304001 -1.462178,-2.451165 -2.838558,-4.530947 -3.058612,-4.621733 -0.220053,-0.09079 -0.400201,-0.361425 -0.400201,-0.601423 0,-0.502997 -4.193939,-7.569614 -5.535924,-9.3278096 -2.417169,-3.1667189 -0.264805,-1.3552107 5.907336,4.9718806 3.744901,3.838851 7.619782,7.787416 8.611068,8.774597 1.692588,1.685747 1.809836,2.005595 1.927844,5.261162 0.246373,6.800757 -0.0382,7.082009 -2.881314,2.847327 z"
         id="path18" /><path
         style="fill:#0000ff;fill-opacity:1;stroke-width:0.495186"
         d="M 57.128335,40.570838 C 57.444069,37.551296 58.63403,32.221525 62.130848,18.163675 63.316439,13.397511 64.567685,8.0935644 64.911352,6.3771277 65.25502,4.6606909 65.68363,3.4351085 65.863778,3.6536038 66.04402,3.8721086 66.066824,11.181554 65.91442,19.896825 l -0.276967,15.845956 -3.83545,3.837683 c -2.109512,2.110737 -4.091039,3.837692 -4.403446,3.837692 -0.395736,0 -0.477638,-0.863017 -0.270222,-2.847318 z"
         id="path19" /><path
         style="fill:#ffff00;fill-opacity:1;stroke-width:0.495186"
         d="m 67.113408,-18.727677 c 0.124754,-7.625863 0.233641,-13.895622 0.242002,-13.932801 0.0086,-0.03718 0.628046,-0.171045 1.37695,-0.297472 0.748999,-0.126435 1.696009,-0.318859 2.104571,-0.427593 1.261032,-0.335658 0.815984,7.232303 -0.937033,15.934158 -2.929107,14.5403902 -3.044359,14.4875811 -2.78649,-1.276292 z"
         id="path20" /><path
         style="fill:#00ffff;fill-opacity:1;stroke-width:0.495186"
         d="m 68.138139,-0.58934425 c 0.258725,-0.23712766 3.478671,-2.63139775 7.155447,-5.32060245 3.676775,-2.6892141 10.320759,-7.6203713 14.764491,-10.9581443 4.443638,-3.337764 8.398901,-6.068661 8.789506,-6.068661 0.390604,0 0.710138,0.439936 0.710138,0.977642 0,0.604986 0.613509,1.28965 1.609359,1.796135 2.12186,1.079136 2.09763,1.043857 1.34436,1.951407 -0.60325,0.72689 -7.178253,5.178528 -7.648575,5.178528 -0.114017,0 -1.165543,0.642896 -2.336691,1.428656 -2.171746,1.457038 -13.630874,7.1207949 -20.039126,9.9044249 -3.494253,1.51784696 -5.294968,1.97772659 -4.348909,1.11061485 z"
         id="path21" /><path
         style="fill:#00ff00;fill-opacity:1;stroke-width:0.495186"
         d="m 56.046215,-10.261249 -7.055491,-7.109165 0.955181,-1.570637 0.955181,-1.570646 2.711523,3.120342 c 2.896327,3.333061 10.049208,13.679255 9.699079,14.0293169 -0.115442,0.1154711 -3.384891,-2.9891748 -7.265473,-6.8992109 z"
         id="path22" /><text
         xml:space="preserve"
         id="text22"
         style="font-style:normal;font-weight:normal;font-size:144px;line-height:1.25;font-family:sans-serif;white-space:pre;shape-inside:url(#rect26-9);display:inline;fill:#000000;fill-opacity:1;stroke:none"
         transform="matrix(0.12212305,0,0,0.14697893,274.199,-222.56868)"><tspan
           x="-1984.2422"
           y="2949.6719"
           id="tspan1">Creative strategy's legacy</tspan></text><path
         style="fill:#ff0066;stroke-width:0.650032"
         d="m -108.38758,210.81147 c -0.79978,-3.27967 -5.70759,-20.14996 -10.90623,-37.48955 -11.59679,-38.68007 -16.60578,-56.51923 -22.72376,-80.928983 -4.99663,-19.935896 -11.87651,-52.710891 -11.20545,-53.381909 0.21897,-0.219005 3.06313,2.045758 6.32033,5.032763 9.98686,9.158463 17.9518,14.680564 19.27144,13.360929 0.50828,-0.508247 -0.64421,-6.911552 -4.0567,-22.539607 -4.84018,-22.166403 -6.18864,-27.3884668 -6.99901,-27.1051863 -1.00538,0.3514725 -0.66092,5.1237793 1.1822,16.3796483 0.81961,5.005246 1.36151,9.319824 1.20421,9.587971 -0.32876,0.560352 -18.41021,0.677333 -18.41021,0.119097 0,-0.202635 -0.57517,-4.078428 -1.27815,-8.612928 -3.42734,-22.1069246 -5.20456,-42.853503 -5.66621,-66.145232 -0.33341,-16.820656 -0.23671,-20.226513 0.69279,-24.404319 2.17988,-9.798227 6.98489,-16.77924 13.88946,-20.179489 2.92499,-1.440462 3.77257,-1.520578 16.08829,-1.520578 h 13.00064 l 4.87524,2.513542 c 10.06571,5.189537 18.587793,12.82453 24.877433,22.287723 6.425318,9.667381 12.914206,25.25649 15.462426,37.147464 1.75327,8.181411 2.415998,28.3747278 1.315402,40.080635 -1.044575,11.109924 -2.606816,16.780333 -7.213106,26.180979 -6.345449,12.949978 -13.897645,19.716891 -24.516295,21.967013 -6.50307,1.378056 -8.92376,1.178525 -16.09449,-1.326586 -3.57149,-1.247704 -6.71605,-2.268537 -6.98783,-2.268537 -0.90314,0 -0.51519,3.88306 1.74266,17.442779 2.8885,17.347142 4.39367,27.897381 6.83168,47.885421 1.09015,8.93794 4.04301,33.03044 6.56188,53.53889 2.51883,20.50849 4.49329,37.52505 4.38763,37.81457 -0.10565,0.28956 -0.84645,-2.15688 -1.64627,-5.43652 z M -138.45994,4.9094823 c 0,-1.5841838 -1.51899,-1.3602405 -1.83526,0.2705453 -0.12439,0.6414206 0.20722,1.0836628 0.81255,1.0836628 0.60301,0 1.02271,-0.5557661 1.02271,-1.3542081 z"
         id="path23" /><path
         style="fill:#ff0066;stroke-width:0.650032"
         d="M 18.197764,152.59577 C 13.752976,151.67071 10.689101,148.51893 7.7476048,141.84575 5.068046,135.76679 4.6027321,118.18343 6.8991037,109.78128 7.5679351,107.33424 5.7890179,108.0218 -0.16191976,112.51051 -6.8267032,117.53763 -6.4817218,117.96703 -6.494563,104.62808 -6.5160824,82.470356 -3.107085,74.969137 9.8730556,68.610705 l 5.3995814,-2.645021 6.520039,0.262466 c 5.322252,0.214277 7.215963,0.581096 10.308237,1.996793 8.325449,3.811517 14.010851,9.7917 18.654041,19.621358 5.347441,11.320498 7.165305,21.675409 5.901196,33.614539 -0.573193,5.41365 -1.051842,7.05294 -3.347614,11.46577 -4.008402,7.70459 -8.732378,12.56919 -15.189411,15.64149 -7.256321,3.45261 -15.082167,5.03481 -19.921361,4.02767 z"
         id="path24" /><path
         style="fill:#ff0066;stroke-width:0.650032"
         d="M 30.32517,246.94315 C 24.03479,236.58806 15.462255,216.92222 8.9087375,197.81281 l -3.3832446,-9.86518 -0.6577189,7.91474 c -0.3617736,4.35314 -0.8407047,8.09774 -1.0643305,8.32136 -0.8664575,0.86646 -4.53083074,-4.74454 -7.5950937,-11.62978 -4.456818,-10.0143 -9.2345928,-24.0908 -14.1230348,-41.61003 -2.287093,-8.19647 -4.430783,-15.17509 -4.763735,-15.50807 -0.813329,-0.8133 -1.254583,0.1265 -5.274697,11.23477 -7.90889,21.85342 -16.789859,36.50685 -23.08292,38.08631 -2.687179,0.67441 -5.53653,-0.50557 -7.712428,-3.19398 -1.929377,-2.38382 -2.008293,-2.72969 -2.14944,-9.42058 -0.113312,-5.37178 -0.01588,-6.33105 0.430284,-4.23287 0.70552,3.3184 2.048263,6.00114 3.794724,7.58165 1.717675,1.55448 6.073563,2.11392 8.531754,1.09569 3.718913,-1.5404 7.655772,-9.88765 9.510854,-20.16576 1.179159,-6.53295 1.209851,-13.00064 0.0617,-13.00064 -1.193376,0 -5.773878,3.10893 -13.953701,9.47078 -3.814798,2.96693 -7.039786,5.29061 -7.166645,5.16371 -0.479919,-0.47988 1.437887,-8.12821 4.163483,-16.60429 3.002809,-9.3381 5.666881,-14.21977 8.452944,-15.48917 1.561994,-0.71169 1.887008,-0.58462 3.862704,1.51024 2.259789,2.39607 4.552598,7.65461 5.256283,12.05526 0.228071,1.42639 0.596689,2.58463 0.81915,2.57387 0.222427,-0.0106 6.839762,-4.98239 14.705154,-11.04808 7.865356,-6.06566 14.4860074,-11.02963 14.7124907,-11.03097 0.2264834,0 0.6133748,1.97199 0.85979,4.38524 2.1184658,20.74894 8.9233373,56.71527 10.7305826,56.71527 1.2895438,0 1.1742913,-2.82812 -0.6693959,-16.42361 -2.1459119,-15.82381 -3.10077544,-29.27706 -1.8793882,-26.47851 1.1377435,2.60696 3.5208279,12.52799 8.3574112,34.79264 7.6968346,35.43155 10.2695376,44.375 18.6244086,64.74375 2.67716,6.52678 4.770226,12.15884 4.651269,12.51571 -0.118957,0.35687 -1.30369,-1.14124 -2.632781,-3.32913 z"
         id="path25" /><path
         style="fill:#ff0066;stroke-width:0.650032"
         d="m 103.67698,128.86691 c -4.168738,-1.88432 -6.889007,-6.74359 -8.046153,-14.37287 -1.14293,-7.53579 -4.788465,-47.133438 -4.768885,-51.799453 0.0254,-6.027773 0.636799,-8.61441 1.806821,-7.643354 2.823916,2.343644 16.779167,26.362483 21.085037,36.290144 5.28221,12.178733 5.90084,21.973993 1.88164,29.792893 -3.41926,6.65177 -7.9164,9.55971 -11.95846,7.73264 z"
         id="path26" /></g></g></svg>
